<svg width="172" height="172" viewBox="0 0 172 172" fill="none" xmlns="http://www.w3.org/2000/svg">
<path fill-rule="evenodd" clip-rule="evenodd" d="M46.0078 159.264C43.0926 159.264 41.2705 157.052 41.2705 153.434C41.2705 136.335 75.199 97.4957 109.045 64.5733C103.322 101.548 65.5112 159.264 46.0078 159.264ZM167.46 6.46247C162.803 6.57471 153.248 6.9362 144.866 7.05645C141.918 7.09872 140.74 8.42334 141.118 10.3248C141.563 12.5656 143.04 14.2247 145.262 14.2834C148.123 14.3592 151.954 13.8814 156.867 13.6398C145.699 22.2333 132.185 33.5284 118.243 46.0954C116.606 33.4523 110.744 23.3407 99.2112 23.3407C82.4485 23.3407 65.6858 48.8492 58.3976 63.061C57.6688 51.4 52.5671 40.4678 41.6349 40.4678C18.9062 40.4678 0 92.1881 0 99.9277C0 102.574 3.02603 104.603 4.84807 104.603C7.03451 104.603 7.7451 103.51 8.47392 100.959C17.9485 69.9848 32.1604 48.4848 41.6349 48.4848C46.3722 48.4848 50.0163 53.9509 50.0163 66.7051C50.0163 76.0893 48.4176 81.7872 48.4176 84.0108C48.4176 87.4854 51.4739 89.2983 53.2959 89.2983C55.4824 89.2983 56.2112 88.2051 57.3044 85.6543C68.2366 58.6882 86.0926 31.7221 98.8468 31.7221C105.127 31.7221 109.4 39.7445 109.752 53.8609C71.5134 89.3373 32.9868 132.088 32.9868 153.118C32.9868 161.871 37.813 166.917 45.6434 166.917C73.7567 166.917 117.756 97.046 118.714 55.324C134.359 40.603 149.277 27.7482 160.012 19.5687C158.36 23.6701 156.693 27.6593 155.846 30.6369C155.225 32.8153 155.603 35.2105 158.28 36.2516C159.973 36.9101 161.482 35.9557 162.146 34.0634C166.18 22.5521 168.259 17.8305 170.727 11.2446C172.341 6.93693 172.168 6.34914 167.46 6.46247Z" fill="#0B3B3C"/>
</svg> 